<svg xmlns="http://www.w3.org/2000/svg" width="21" height="24" fill="none" viewBox="0 0 21 24"><g clip-path="url(#clip0_1940_12)"><path fill="#FFFBF9" stroke="#FFFBF9" d="M3.5 0H3.75H16.25C16.5 -0.0833333 16.5833 0 16.5 0.25C16.5 0.916667 16.5 1.33333 16.5 1.5C16.3333 1.5 15.9167 1.5 15.25 1.5L14.75 1H5.25L4.75 1.5C4.08333 1.5 3.66667 1.5 3.5 1.5V0Z" opacity="0.945098"/><path fill="#FFFBF9" stroke="#FFFBF9" d="M1.5 2.5H2.5V2.75V21.25V21.5H1.5V21.25V2.75V2.5Z" opacity="0.945098"/><path fill="#FFFBF9" stroke="#FFFBF9" d="M17.5 2.5H18.5V2.75V21.25V21.5H17.5V21.25V2.75V2.5Z" opacity="0.945098"/><path fill="#FFFBF9" stroke="#FFFBF9" d="M6.5 19.5H6.75H13.25H13.5V20.5H13.25H6.75H6.5V19.5Z" opacity="0.945098"/><path fill="#FFFBF9" stroke="#FFFBF9" d="M3.5 22.5C3.66667 22.5 4.08333 22.5 4.75 22.5L5.25 23H14.75L15.25 22.5C15.9167 22.5 16.3333 22.5 16.5 22.5C16.5 22.6667 16.5 23.0833 16.5 23.75C16.5833 24 16.5 24.0833 16.25 24H3.75H3.5V22.5Z" opacity="0.945098"/></g><defs><clipPath id="clip0_1940_12"><rect width="21" height="24" fill="white"/></clipPath></defs></svg>